<svg width="40" height="40" viewBox="0 0 40 40" fill="none" xmlns="http://www.w3.org/2000/svg">
<rect x="0.876953" width="39.1232" height="39.1232" fill="#ECECEC"/>
<path d="M20.2751 12.4261C22.5702 12.4261 22.83 12.4261 23.6961 12.4694C24.5189 12.5127 24.9952 12.6427 25.2984 12.7726C25.6881 12.9458 25.9912 13.119 26.2944 13.4221C26.5975 13.7253 26.7707 13.9851 26.9439 14.4181C27.0738 14.7213 27.2037 15.1543 27.247 16.0204C27.2904 16.9298 27.2904 17.1896 27.2904 19.4414C27.2904 21.7365 27.2904 21.9964 27.247 22.8625C27.2037 23.6852 27.0738 24.1616 26.9439 24.4647C26.7707 24.8544 26.5975 25.1576 26.2944 25.4607C25.9912 25.7638 25.7314 25.9371 25.2984 26.1103C24.9952 26.2402 24.5622 26.3701 23.6961 26.4134C22.7867 26.4567 22.5269 26.4567 20.2751 26.4567C17.98 26.4567 17.7201 26.4567 16.854 26.4134C16.0313 26.3701 15.5549 26.2402 15.2518 26.1103C14.862 25.9371 14.5589 25.7638 14.2558 25.4607C13.9527 25.1576 13.7794 24.8978 13.6062 24.4647C13.4763 24.1616 13.3464 23.7285 13.3031 22.8625C13.2598 21.9531 13.2598 21.6932 13.2598 19.4414C13.2598 17.1463 13.2598 16.8865 13.3031 16.0204C13.3464 15.1976 13.4763 14.7213 13.6062 14.4181C13.7794 14.0284 13.9527 13.7253 14.2558 13.4221C14.5589 13.119 14.8187 12.9458 15.2518 12.7726C15.5549 12.6427 15.9879 12.5127 16.854 12.4694C17.7634 12.4261 18.0233 12.4261 20.2751 12.4261ZM20.2751 10.8672C17.98 10.8672 17.6768 10.8672 16.7674 10.9105C15.858 10.9538 15.2518 11.0837 14.6888 11.3002C14.1259 11.5168 13.6495 11.8199 13.1732 12.2962C12.6968 12.7726 12.3937 13.2489 12.1772 13.8119C11.9607 14.3748 11.8308 14.9811 11.7874 15.8905C11.7441 16.7999 11.7441 17.103 11.7441 19.3981C11.7441 21.6932 11.7441 21.9964 11.7874 22.9058C11.8308 23.8151 11.9607 24.4214 12.1772 24.9844C12.3937 25.5473 12.6968 26.0237 13.1732 26.5C13.6495 26.9764 14.1259 27.2795 14.6888 27.496C15.2518 27.7125 15.858 27.8424 16.7674 27.8857C17.6768 27.9291 17.98 27.929 20.2751 27.929C22.5702 27.929 22.8733 27.9291 23.7827 27.8857C24.6921 27.8424 25.2984 27.7125 25.8613 27.496C26.4243 27.2795 26.9006 26.9764 27.377 26.5C27.8533 26.0237 28.1564 25.5473 28.373 24.9844C28.5895 24.4214 28.7194 23.8151 28.7627 22.9058C28.806 21.9964 28.806 21.6932 28.806 19.3981C28.806 17.103 28.806 16.7999 28.7627 15.8905C28.7194 14.9811 28.5895 14.3748 28.373 13.8119C28.1564 13.2489 27.8533 12.7726 27.377 12.2962C26.9006 11.8199 26.4243 11.5168 25.8613 11.3002C25.2984 11.0837 24.6921 10.9538 23.7827 10.9105C22.9166 10.8672 22.6135 10.8672 20.2751 10.8672Z" fill="#AD2131"/>
<path d="M20.2751 15.0244C17.85 15.0244 15.9013 16.9731 15.9013 19.3982C15.9013 21.8232 17.85 23.7719 20.2751 23.7719C22.7001 23.7719 24.6488 21.8232 24.6488 19.3982C24.6488 16.9731 22.7001 15.0244 20.2751 15.0244ZM20.2751 22.2129C18.7161 22.2129 17.417 20.9571 17.417 19.3549C17.417 17.7959 18.6728 16.4968 20.2751 16.4968C21.834 16.4968 23.1331 17.7526 23.1331 19.3549C23.1331 20.9571 21.8773 22.2129 20.2751 22.2129Z" fill="#AD2131"/>
<path d="M25.8613 14.8512C25.8613 15.4142 25.385 15.8905 24.822 15.8905C24.2591 15.8905 23.7827 15.4142 23.7827 14.8512C23.7827 14.2882 24.2591 13.8119 24.822 13.8119C25.385 13.8119 25.8613 14.2882 25.8613 14.8512Z" fill="#AD2131"/>
</svg>
