<svg width="30" height="30" viewBox="0 0 30 30" fill="none" xmlns="http://www.w3.org/2000/svg">
<path d="M24.5357 18.7852C24.082 18.7852 23.7143 19.1529 23.7143 19.6066V24.5352C23.7143 24.9888 23.3465 25.3566 22.8928 25.3566H6.46433C6.01065 25.3566 5.64289 24.9888 5.64289 24.5352V19.6066C5.64289 19.1529 5.27512 18.7852 4.82144 18.7852C4.36777 18.7852 4 19.1529 4 19.6066V24.5352C4 25.8962 5.1033 26.9995 6.46428 26.9995H22.8929C24.2539 26.9995 25.3572 25.8962 25.3572 24.5352V19.6066C25.3572 19.1529 24.9894 18.7852 24.5357 18.7852Z" fill="white"/>
<path d="M19.3495 18.205C19.0312 17.8976 18.5266 17.8976 18.2083 18.205L15.5017 20.9099V4.82144C15.5017 4.36777 15.1339 4 14.6802 4C14.2265 4 13.8588 4.36777 13.8588 4.82144V20.9099L11.1538 18.205C10.8275 17.8898 10.3075 17.8989 9.99231 18.2251C9.68485 18.5435 9.68485 19.0481 9.99231 19.3664L14.0994 23.4736C14.4198 23.7947 14.9399 23.7954 15.2611 23.4751C15.2616 23.4746 15.2621 23.4741 15.2626 23.4736L19.3697 19.3664C19.6849 19.0401 19.6759 18.5201 19.3495 18.205Z" fill="white"/>
</svg>
