<svg width="24" height="24" viewBox="0 0 24 24" fill="none" xmlns="http://www.w3.org/2000/svg">
<path fill-rule="evenodd" clip-rule="evenodd" d="M4.19282 4.1928C4.44991 3.93573 4.86673 3.93574 5.12381 4.19282L19.8072 18.8762C20.0643 19.1333 20.0643 19.5501 19.8072 19.8072C19.5501 20.0643 19.1333 20.0643 18.8762 19.8072L4.1928 5.12375C3.93572 4.86667 3.93573 4.44987 4.19282 4.1928Z" fill="#AD2131"/>
<path fill-rule="evenodd" clip-rule="evenodd" d="M19.8072 4.19282C20.0643 4.44991 20.0643 4.86673 19.8072 5.12381L5.12375 19.8072C4.86667 20.0643 4.44987 20.0643 4.1928 19.8072C3.93573 19.5501 3.93574 19.1333 4.19282 18.8762L18.8763 4.1928C19.1333 3.93572 19.5501 3.93573 19.8072 4.19282Z" fill="#AD2131"/>
</svg>
