<svg width="31" height="31" viewBox="0 0 31 31" fill="none" xmlns="http://www.w3.org/2000/svg">
<path fill-rule="evenodd" clip-rule="evenodd" d="M4.82221 4.38859C5.17369 4.03713 5.74354 4.03714 6.095 4.38862L26.1693 24.4637C26.5208 24.8152 26.5208 25.385 26.1693 25.7365C25.8178 26.088 25.248 26.088 24.8965 25.7365L4.82219 5.66138C4.47072 5.30991 4.47073 4.74006 4.82221 4.38859Z" fill="white"/>
<path fill-rule="evenodd" clip-rule="evenodd" d="M26.17 4.38862C26.5215 4.74009 26.5215 5.30994 26.17 5.66141L6.09488 25.7357C5.7434 26.0872 5.17355 26.0872 4.82209 25.7357C4.47062 25.3842 4.47063 24.8144 4.82211 24.4629L24.8972 4.38859C25.2487 4.03713 25.8185 4.03714 26.17 4.38862Z" fill="white"/>
</svg>
