<svg width="30" height="31" viewBox="0 0 30 31" fill="none" xmlns="http://www.w3.org/2000/svg">
<path d="M5 4.00781C4.44772 4.00781 4 4.45553 4 5.00781V7.00781C4 7.5601 4.44772 8.00781 5 8.00781H7C7.55228 8.00781 8 7.5601 8 7.00781V5.00781C8 4.45553 7.55228 4.00781 7 4.00781H5Z" fill="#AD2131"/>
<path d="M4 14.0078C4 13.4555 4.44772 13.0078 5 13.0078H7C7.55228 13.0078 8 13.4555 8 14.0078V16.0078C8 16.5601 7.55228 17.0078 7 17.0078H5C4.44772 17.0078 4 16.5601 4 16.0078V14.0078Z" fill="#AD2131"/>
<path d="M4 23.0078C4 22.4555 4.44772 22.0078 5 22.0078H7C7.55228 22.0078 8 22.4555 8 23.0078V25.0078C8 25.5601 7.55228 26.0078 7 26.0078H5C4.44772 26.0078 4 25.5601 4 25.0078V23.0078Z" fill="#AD2131"/>
<path d="M14 4.00781C13.4477 4.00781 13 4.45553 13 5.00781V7.00781C13 7.5601 13.4477 8.00781 14 8.00781H16C16.5523 8.00781 17 7.5601 17 7.00781V5.00781C17 4.45553 16.5523 4.00781 16 4.00781H14Z" fill="#AD2131"/>
<path d="M13 14.0078C13 13.4555 13.4477 13.0078 14 13.0078H16C16.5523 13.0078 17 13.4555 17 14.0078V16.0078C17 16.5601 16.5523 17.0078 16 17.0078H14C13.4477 17.0078 13 16.5601 13 16.0078V14.0078Z" fill="#AD2131"/>
<path d="M13 23.0078C13 22.4555 13.4477 22.0078 14 22.0078H16C16.5523 22.0078 17 22.4555 17 23.0078V25.0078C17 25.5601 16.5523 26.0078 16 26.0078H14C13.4477 26.0078 13 25.5601 13 25.0078V23.0078Z" fill="#AD2131"/>
<path d="M23 4.00781C22.4477 4.00781 22 4.45553 22 5.00781V7.00781C22 7.5601 22.4477 8.00781 23 8.00781H25C25.5523 8.00781 26 7.5601 26 7.00781V5.00781C26 4.45553 25.5523 4.00781 25 4.00781H23Z" fill="#AD2131"/>
<path d="M22 14.0078C22 13.4555 22.4477 13.0078 23 13.0078H25C25.5523 13.0078 26 13.4555 26 14.0078V16.0078C26 16.5601 25.5523 17.0078 25 17.0078H23C22.4477 17.0078 22 16.5601 22 16.0078V14.0078Z" fill="#AD2131"/>
<path d="M22 23.0078C22 22.4555 22.4477 22.0078 23 22.0078H25C25.5523 22.0078 26 22.4555 26 23.0078V25.0078C26 25.5601 25.5523 26.0078 25 26.0078H23C22.4477 26.0078 22 25.5601 22 25.0078V23.0078Z" fill="#AD2131"/>
</svg>
