<svg width="30" height="30" viewBox="0 0 30 30" fill="none" xmlns="http://www.w3.org/2000/svg">
<path fill-rule="evenodd" clip-rule="evenodd" d="M1.50417 7.31224C1.50417 6.84639 1.88181 6.46875 2.34766 6.46875H27.6523C28.1182 6.46875 28.4958 6.84639 28.4958 7.31224C28.4958 7.77808 28.1182 8.15573 27.6523 8.15573H2.34766C1.88181 8.15573 1.50417 7.77808 1.50417 7.31224ZM1.50391 14.9993C1.50391 14.5334 1.88155 14.1558 2.3474 14.1558H27.6521C28.1179 14.1558 28.4955 14.5334 28.4955 14.9993C28.4955 15.4651 28.1179 15.8427 27.6521 15.8427H2.3474C1.88155 15.8427 1.50391 15.4651 1.50391 14.9993ZM2.3474 21.8428C1.88155 21.8428 1.50391 22.2204 1.50391 22.6863C1.50391 23.1521 1.88155 23.5298 2.3474 23.5298H27.6521C28.1179 23.5298 28.4955 23.1521 28.4955 22.6863C28.4955 22.2204 28.1179 21.8428 27.6521 21.8428H2.3474Z" fill="white"/>
</svg>
