<svg width="30" height="30" viewBox="0 0 30 30" fill="none" xmlns="http://www.w3.org/2000/svg">
<path d="M27.8411 14.012C27.6178 13.7065 22.2963 6.53125 15.4999 6.53125C8.70343 6.53125 3.38174 13.7065 3.15864 14.0117C2.94712 14.3016 2.94712 14.6947 3.15864 14.9845C3.38174 15.2901 8.70343 22.4653 15.4999 22.4653C22.2963 22.4653 27.6178 15.29 27.8411 14.9848C28.0529 14.695 28.0529 14.3016 27.8411 14.012ZM15.4999 20.817C10.4936 20.817 6.15757 16.0546 4.87403 14.4977C6.15591 12.9395 10.4828 8.17959 15.4999 8.17959C20.5059 8.17959 24.8416 12.9411 26.1257 14.4988C24.8438 16.057 20.5169 20.817 15.4999 20.817Z" fill="white"/>
<path d="M15.4998 9.55469C12.7731 9.55469 10.5547 11.7731 10.5547 14.4998C10.5547 17.2264 12.7731 19.4448 15.4998 19.4448C18.2264 19.4448 20.4448 17.2264 20.4448 14.4998C20.4448 11.7731 18.2264 9.55469 15.4998 9.55469ZM15.4998 17.7965C13.6819 17.7965 12.2031 16.3176 12.2031 14.4998C12.2031 12.6819 13.6819 11.2031 15.4998 11.2031C17.3176 11.2031 18.7964 12.6819 18.7964 14.4998C18.7964 16.3176 17.3176 17.7965 15.4998 17.7965Z" fill="white"/>
</svg>
