<svg width="30" height="31" viewBox="0 0 30 31" fill="none" xmlns="http://www.w3.org/2000/svg">
<path d="M3 4.00781C2.44772 4.00781 2 4.45553 2 5.00781V7.00781C2 7.5601 2.44772 8.00781 3 8.00781H5C5.55228 8.00781 6 7.5601 6 7.00781V5.00781C6 4.45553 5.55228 4.00781 5 4.00781H3Z" fill="white"/>
<path d="M8.75 5.25781C8.33579 5.25781 8 5.5936 8 6.00781C8 6.42203 8.33579 6.75781 8.75 6.75781H26.25C26.6642 6.75781 27 6.42203 27 6.00781C27 5.5936 26.6642 5.25781 26.25 5.25781H8.75Z" fill="white"/>
<path d="M2 14.0078C2 13.4555 2.44772 13.0078 3 13.0078H5C5.55228 13.0078 6 13.4555 6 14.0078V16.0078C6 16.5601 5.55228 17.0078 5 17.0078H3C2.44772 17.0078 2 16.5601 2 16.0078V14.0078Z" fill="white"/>
<path d="M8.75 14.2578C8.33579 14.2578 8 14.5936 8 15.0078C8 15.422 8.33579 15.7578 8.75 15.7578H26.25C26.6642 15.7578 27 15.422 27 15.0078C27 14.5936 26.6642 14.2578 26.25 14.2578H17.5H8.75Z" fill="white"/>
<path d="M2 23.0078C2 22.4555 2.44772 22.0078 3 22.0078H5C5.55228 22.0078 6 22.4555 6 23.0078V25.0078C6 25.5601 5.55228 26.0078 5 26.0078H3C2.44772 26.0078 2 25.5601 2 25.0078V23.0078Z" fill="white"/>
<path d="M8.75 23.2578C8.33579 23.2578 8 23.5936 8 24.0078C8 24.422 8.33579 24.7578 8.75 24.7578H26.25C26.6642 24.7578 27 24.422 27 24.0078C27 23.5936 26.6642 23.2578 26.25 23.2578H8.75Z" fill="white"/>
</svg>
