<svg width="30" height="31" viewBox="0 0 30 31" fill="none" xmlns="http://www.w3.org/2000/svg">
<g clip-path="url(#clip0_193_3118)">
<path d="M27.3414 25.5142L20.5553 18.7281C21.8822 17.09 22.6809 15.0074 22.6809 12.7399C22.6809 7.4835 18.4044 3.20703 13.148 3.20703C7.89166 3.20703 3.61523 7.4835 3.61523 12.7399C3.61523 17.9963 7.8917 22.2727 13.1481 22.2727C15.4156 22.2727 17.4982 21.474 19.1363 20.1471L25.9511 26.9618C26.1596 27.1411 26.8007 27.5413 27.3801 26.9618C27.8821 26.4598 27.5242 25.6971 27.3414 25.5142ZM13.1481 20.2658C8.99806 20.2658 5.62216 16.8899 5.62216 12.7399C5.62216 8.58986 8.99806 5.21396 13.1481 5.21396C17.2981 5.21396 20.674 8.58986 20.674 12.7399C20.674 16.8899 17.2981 20.2658 13.1481 20.2658Z" fill="white"/>
</g>
<defs>
<clipPath id="clip0_193_3118">
<rect width="30" height="30" fill="white" transform="translate(0 0.0078125)"/>
</clipPath>
</defs>
</svg>
