<svg width="19" height="16" viewBox="0 0 19 16" fill="none" xmlns="http://www.w3.org/2000/svg">
<path d="M0.0527344 13.735C1.75541 14.7728 3.74998 15.3861 5.8905 15.3861C12.9931 15.3861 16.9822 9.58362 16.739 4.39444C17.4687 3.87552 18.1498 3.21508 18.6363 2.46029C17.9552 2.74334 17.2255 2.93204 16.4471 3.02639C17.2255 2.55464 17.8579 1.84703 18.1011 0.997889C17.3714 1.42246 16.5444 1.75268 15.6687 1.8942C14.9877 1.18659 13.9661 0.714844 12.8958 0.714844C10.4148 0.714844 8.61479 2.93204 9.19856 5.24358C6.03644 5.10206 3.21486 3.63965 1.31759 1.37529C0.295977 3.02639 0.782454 5.19641 2.48513 6.32859C1.85271 6.32859 1.26894 6.13989 0.733807 5.85685C0.685159 7.55512 1.95001 9.15905 3.79863 9.53644C3.2635 9.67797 2.67973 9.72514 2.09595 9.58362C2.58243 11.046 3.99322 12.131 5.64725 12.131C4.09052 13.4047 2.09595 13.9708 0.0527344 13.735Z" fill="#AD2131"/>
</svg>
