<svg width="23" height="14" viewBox="0 0 23 14" fill="none" xmlns="http://www.w3.org/2000/svg">
<path fill-rule="evenodd" clip-rule="evenodd" d="M22.7052 1.68451C22.4218 1.4856 21.3286 1.4856 20.2759 1.4856C19.1826 1.52538 18.0894 1.52538 17.8465 1.60494C17.6035 1.6845 17.0772 2.9177 16.4293 4.23047C15.66 5.66257 14.6883 7.05489 14.1214 7.05489C13.3521 7.05489 13.5141 4.70783 13.5951 2.9177C13.5951 1.76406 13.4331 1.40604 13.2307 1.2867C12.8258 1.00824 11.692 0.729761 11.692 0.729761C11.692 0.729761 8.29093 0.491078 7.80505 1.92318C8.45288 2.00274 9.58659 1.80385 9.1412 6.25928C9.10071 6.45818 8.61483 8.32787 7.03574 5.82169C6.63084 5.1852 5.13272 1.4856 4.60636 1.44582C2.8653 1.40604 1.12426 1.32648 0.516916 1.64472C-0.0499387 1.96297 1.28623 4.50893 3.51316 7.93006C5.33519 10.7545 7.23819 12.9424 10.5583 13.4596C11.2062 13.5391 12.8258 13.5789 13.3521 13.3402C13.6761 13.1811 13.2712 10.7545 14.4454 10.5158C14.9717 10.4362 16.9962 13.0618 17.7655 13.3402C18.2514 13.5391 19.2636 13.6187 20.3164 13.5391C21.4501 13.4994 22.7457 13.6585 22.8672 12.9026C23.1506 11.2319 19.4256 9.04392 19.3446 8.00963C19.2636 7.2538 20.6808 5.90126 21.4501 4.86696C22.2599 3.71332 23.2721 2.16187 22.7052 1.68451Z" fill="#AD2131"/>
</svg>
